<svg width="50" height="50" viewBox="0 0 50 50" fill="none" xmlns="http://www.w3.org/2000/svg">
  <rect width="50" height="50" rx="12" fill="#162558"/>
  <path d="M25 14C18.3726 14 13 19.3726 13 26C13 32.6274 18.3726 38 25 38C31.6274 38 37 32.6274 37 26C37 19.3726 31.6274 14 25 14ZM25 16C30.5228 16 35 20.4772 35 26C35 31.5228 30.5228 36 25 36C19.4772 36 15 31.5228 15 26C15 20.4772 19.4772 16 25 16ZM25 18C20.5817 18 17 21.5817 17 26C17 30.4183 20.5817 34 25 34C29.4183 34 33 30.4183 33 26C33 21.5817 29.4183 18 25 18ZM25 20C28.3137 20 31 22.6863 31 26C31 29.3137 28.3137 32 25 32C21.6863 32 19 29.3137 19 26C19 22.6863 21.6863 20 25 20ZM25 22C22.7909 22 21 23.7909 21 26C21 28.2091 22.7909 30 25 30C27.2091 30 29 28.2091 29 26C29 23.7909 27.2091 22 25 22Z" fill="url(#paint0_linear)"/>
  <defs>
    <linearGradient id="paint0_linear" x1="13" y1="14" x2="37" y2="38" gradientUnits="userSpaceOnUse">
      <stop stop-color="#672CD3"/>
      <stop offset="1" stop-color="#3933A9"/>
    </linearGradient>
  </defs>
</svg>
