<?xml version="1.0" encoding="UTF-8" standalone="no"?>
<svg width="100" height="24" viewBox="0 0 100 24" fill="none" xmlns="http://www.w3.org/2000/svg">
  <!-- Q circle -->
  <circle cx="12" cy="12" r="11" fill="#7E57C2" />
  
  <!-- Mail icon inside Q -->
  <rect x="6.5" y="9" width="11" height="7" stroke="white" stroke-width="1.2" fill="none" rx="1" />
  <path d="M6.5 9L12 12.5L17.5 9" stroke="white" stroke-width="1.2" fill="none" />
  
  <!-- Mail text -->
  <path d="M35.0781 18.0625C33.8594 18.0625 32.7812 17.8125 31.8438 17.3125C30.9062 16.8125 30.1719 16.1094 29.6406 15.2031C29.1094 14.2969 28.8438 13.2656 28.8438 12.1094C28.8438 10.9531 29.1094 9.92188 29.6406 9.01562C30.1719 8.10937 30.9062 7.40625 31.8438 6.90625C32.7812 6.40625 33.8594 6.15625 35.0781 6.15625C36.1094 6.15625 37.0312 6.34375 37.8438 6.71875C38.6562 7.09375 39.3125 7.65625 39.8125 8.40625L38.1562 9.625C37.7812 9.125 37.3438 8.75 36.8438 8.5C36.3438 8.25 35.7656 8.125 35.1094 8.125C34.3281 8.125 33.625 8.29688 33 8.64062C32.375 8.98438 31.8906 9.45312 31.5469 10.0469C31.2031 10.6406 31.0312 11.3281 31.0312 12.1094C31.0312 12.8906 31.2031 13.5781 31.5469 14.1719C31.8906 14.7656 32.375 15.2344 33 15.5781C33.625 15.9219 34.3281 16.0938 35.1094 16.0938C35.7656 16.0938 36.3438 15.9688 36.8438 15.7188C37.3438 15.4688 37.7812 15.0938 38.1562 14.5938L39.8125 15.8125C39.3125 16.5625 38.6562 17.125 37.8438 17.5C37.0312 17.875 36.1094 18.0625 35.0781 18.0625Z" fill="#7E57C2"/>
  <path d="M47.3281 18.0625C46.1406 18.0625 45.0938 17.8125 44.1875 17.3125C43.2812 16.8125 42.5781 16.1094 42.0781 15.2031C41.5781 14.2969 41.3281 13.2656 41.3281 12.1094C41.3281 10.9531 41.5781 9.92188 42.0781 9.01562C42.5781 8.10937 43.2812 7.40625 44.1875 6.90625C45.0938 6.40625 46.1406 6.15625 47.3281 6.15625C48.5156 6.15625 49.5625 6.40625 50.4688 6.90625C51.375 7.40625 52.0781 8.10937 52.5781 9.01562C53.0781 9.92188 53.3281 10.9531 53.3281 12.1094C53.3281 13.2656 53.0781 14.2969 52.5781 15.2031C52.0781 16.1094 51.375 16.8125 50.4688 17.3125C49.5625 17.8125 48.5156 18.0625 47.3281 18.0625ZM47.3281 16.0938C48.0781 16.0938 48.7344 15.9219 49.2969 15.5781C49.8594 15.2344 50.2969 14.7656 50.6094 14.1719C50.9219 13.5781 51.0781 12.8906 51.0781 12.1094C51.0781 11.3281 50.9219 10.6406 50.6094 10.0469C50.2969 9.45312 49.8594 8.98438 49.2969 8.64062C48.7344 8.29688 48.0781 8.125 47.3281 8.125C46.5781 8.125 45.9219 8.29688 45.3594 8.64062C44.7969 8.98438 44.3594 9.45312 44.0469 10.0469C43.7344 10.6406 43.5781 11.3281 43.5781 12.1094C43.5781 12.8906 43.7344 13.5781 44.0469 14.1719C44.3594 14.7656 44.7969 15.2344 45.3594 15.5781C45.9219 15.9219 46.5781 16.0938 47.3281 16.0938Z" fill="#7E57C2"/>
  <path d="M55.2656 18V6.21875H57.3281V8.26562H57.4531C57.6719 7.57812 58.0469 7.04688 58.5781 6.67188C59.1094 6.29688 59.7344 6.10938 60.4531 6.10938C60.6406 6.10938 60.8594 6.125 61.1094 6.15625C61.3594 6.1875 61.5625 6.23438 61.7188 6.29688V8.25C61.5625 8.1875 61.3438 8.125 61.0625 8.0625C60.7812 8 60.5156 7.96875 60.2656 7.96875C59.7031 7.96875 59.2031 8.07812 58.7656 8.29688C58.3281 8.51562 57.9844 8.82812 57.7344 9.23438C57.4844 9.64062 57.3594 10.1094 57.3594 10.6406V18H55.2656Z" fill="#7E57C2"/>
  <path d="M68.0781 18.0625C66.8594 18.0625 65.7812 17.8125 64.8438 17.3125C63.9062 16.8125 63.1719 16.1094 62.6406 15.2031C62.1094 14.2969 61.8438 13.2656 61.8438 12.1094C61.8438 10.9531 62.1094 9.92188 62.6406 9.01562C63.1719 8.10937 63.9062 7.40625 64.8438 6.90625C65.7812 6.40625 66.8594 6.15625 68.0781 6.15625C69.1094 6.15625 70.0312 6.34375 70.8438 6.71875C71.6562 7.09375 72.3125 7.65625 72.8125 8.40625L71.1562 9.625C70.7812 9.125 70.3438 8.75 69.8438 8.5C69.3438 8.25 68.7656 8.125 68.1094 8.125C67.3281 8.125 66.625 8.29688 66 8.64062C65.375 8.98438 64.8906 9.45312 64.5469 10.0469C64.2031 10.6406 64.0312 11.3281 64.0312 12.1094C64.0312 12.8906 64.2031 13.5781 64.5469 14.1719C64.8906 14.7656 65.375 15.2344 66 15.5781C66.625 15.9219 67.3281 16.0938 68.1094 16.0938C68.7656 16.0938 69.3438 15.9688 69.8438 15.7188C70.3438 15.4688 70.7812 15.0938 71.1562 14.5938L72.8125 15.8125C72.3125 16.5625 71.6562 17.125 70.8438 17.5C70.0312 17.875 69.1094 18.0625 68.0781 18.0625Z" fill="#7E57C2"/>
  <path d="M74.1406 18V6.21875H76.2344V18H74.1406ZM75.2031 4.5C74.8281 4.5 74.5156 4.375 74.2656 4.125C74.0156 3.875 73.8906 3.57812 73.8906 3.23438C73.8906 2.89062 74.0156 2.59375 74.2656 2.34375C74.5156 2.09375 74.8281 1.96875 75.2031 1.96875C75.5781 1.96875 75.8906 2.09375 76.1406 2.34375C76.3906 2.59375 76.5156 2.89062 76.5156 3.23438C76.5156 3.57812 76.3906 3.875 76.1406 4.125C75.8906 4.375 75.5781 4.5 75.2031 4.5Z" fill="#7E57C2"/>
  <path d="M84.0469 6.21875V8.04688H78.4062V6.21875H84.0469ZM79.8438 3.375H81.9375V14.5312C81.9375 15 82.0156 15.3438 82.1719 15.5625C82.3281 15.7812 82.5156 15.9219 82.7344 15.9844C82.9531 16.0469 83.1875 16.0781 83.4375 16.0781C83.625 16.0781 83.7656 16.0719 83.8594 16.0594C83.9531 16.0469 84.0469 16.0312 84.1406 16.0156L84.5781 17.8594C84.4219 17.9219 84.2188 17.9844 83.9688 18.0469C83.7188 18.1094 83.3906 18.1406 82.9844 18.1406C82.3906 18.1406 81.8125 18.0312 81.25 17.8125C80.6875 17.5938 80.2188 17.2656 79.8438 16.8281C79.4688 16.3906 79.2812 15.8438 79.2812 15.1875V3.375H79.8438Z" fill="#7E57C2"/>
</svg>