<svg width="50" height="50" viewBox="0 0 50 50" fill="none" xmlns="http://www.w3.org/2000/svg">
  <rect width="50" height="50" rx="12" fill="#162558"/>
  <path d="M16 14C14.8954 14 14 14.8954 14 16V30C14 31.1046 14.8954 32 16 32H22V36L30 32H34C35.1046 32 36 31.1046 36 30V16C36 14.8954 35.1046 14 34 14H16ZM16 16H34V30H29L24 33V30H16V16ZM20 21C20 21.5523 20.4477 22 21 22C21.5523 22 22 21.5523 22 21C22 20.4477 21.5523 20 21 20C20.4477 20 20 20.4477 20 21ZM24 21C24 21.5523 24.4477 22 25 22C25.5523 22 26 21.5523 26 21C26 20.4477 25.5523 20 25 20C24.4477 20 24 20.4477 24 21ZM28 21C28 21.5523 28.4477 22 29 22C29.5523 22 30 21.5523 30 21C30 20.4477 29.5523 20 29 20C28.4477 20 28 20.4477 28 21Z" fill="url(#paint0_linear)"/>
  <defs>
    <linearGradient id="paint0_linear" x1="14" y1="14" x2="36" y2="36" gradientUnits="userSpaceOnUse">
      <stop stop-color="#672CD3"/>
      <stop offset="1" stop-color="#3933A9"/>
    </linearGradient>
  </defs>
</svg>
